<svg clip-rule="evenodd" fill-rule="evenodd" stroke-linecap="round" stroke-linejoin="round" stroke-miterlimit="10" viewBox="0 0 1000 375" xmlns="http://www.w3.org/2000/svg"><path d="M854.559 328.444c-2.52 0-4.32-.72-6.12-2.16s-2.52-3.24-2.52-5.4v-87.48c0-9.72 1.44-19.44 4.32-28.8 2.88-9 7.2-17.28 12.6-24.84 5.4-7.2 11.88-12.96 19.44-17.28 7.56-3.96 15.84-6.12 24.84-6.12h18.36c2.16 0 3.96.72 5.4 2.16s2.16 3.24 2.16 5.76-.72 4.32-2.16 6.12-3.24 2.52-5.4 2.52h-16.92c-9 0-16.92 2.88-23.76 8.64-6.84 6.12-11.88 13.68-15.48 22.68-3.96 9.36-5.76 19.08-5.76 29.52v87.12c0 2.16-.72 3.96-2.52 5.4s-3.96 2.16-6.48 2.16zm-78.02 2.16c-14.76 0-27.36-2.88-38.52-8.28s-20.16-13.32-26.64-23.4c-6.48-9.72-9.72-21.6-9.72-34.92v-42.84c0-11.88 2.88-22.68 9.36-32.4 6.12-9.72 14.04-17.64 24.12-23.76 9.72-5.76 20.88-8.64 32.76-8.64s22.68 2.88 32.4 8.28c9.72 5.76 18 13.32 24.12 23.04s9 21.24 9 33.84c0 9-1.44 15.12-4.32 19.08-3.24 3.96-6.84 6.48-11.52 7.2-4.68 1.08-9.36 1.44-14.76 1.44h-83.52v15.12c0 15.48 5.4 27.72 16.56 36.36 11.16 9.36 24.84 13.68 41.4 13.68 9.72 0 17.28-1.08 22.68-3.6s9.36-4.68 12.24-7.2 5.4-3.6 7.92-3.6c1.8 0 3.24.36 4.32 1.44s2.16 2.16 2.88 3.24c.72 1.44 1.08 2.88 1.08 3.96 0 2.52-2.16 5.4-6.12 9-4.32 3.6-10.44 6.48-18 9-7.56 2.88-16.92 3.96-27.72 3.96zm-57.24-96.12h76.68c8.28 0 13.68-.72 16.2-2.52s3.96-5.04 3.96-10.44c0-8.28-1.8-15.84-5.76-23.76-3.96-7.56-9.72-13.68-16.92-18.36-7.56-4.68-15.84-7.2-25.56-7.2-9 0-17.28 2.16-24.48 6.48-7.56 4.32-13.32 10.08-17.64 17.28s-6.48 15.12-6.48 23.76zM573.6 328.444c-2.52 0-4.32-.72-5.76-2.16s-2.16-3.24-2.16-5.04c0-1.08.36-2.16.72-3.6.36-1.08 1.08-2.16 1.8-2.88l92.16-141.84h-91.44v-16.56h108.36c2.52 0 4.32.72 5.76 1.8 1.44 1.44 2.16 3.24 2.16 5.76 0 2.16-.72 4.32-2.16 6.12l-92.52 142.2h91.08c2.16 0 3.96.72 5.4 2.16 1.44 1.8 2.16 3.6 2.16 6.12 0 2.16-.72 3.96-2.16 5.4-1.44 1.8-3.24 2.52-5.4 2.52z" fill-rule="nonzero"/><g fill-rule="nonzero"><path d="M530.096 78.66c-7.013-4.73-13.688-7.156-19.309-7.006-15.518.404-27.822 13.344-27.416 28.874.199 7.519 3.308 14.513 8.764 19.69 5.451 5.178 12.598 7.924 20.116 7.728 8.294-.217 15.306-1.884 20.509-8.383.619-.774 3.264 1.227 3.96 1.926l7.01 5.716 16.183-18.629c-17.944-18.873-27.886-28.62-29.817-29.916zm-6.156 30.912a14.395 14.395 0 01-9.4 5.896c-3.818.646-7.66-.24-10.815-2.485a14.395 14.395 0 01-5.896-9.4 14.442 14.442 0 01.895-7.95 14.645 14.645 0 011.59-2.865 14.4 14.4 0 019.404-5.895c3.817-.642 7.657.24 10.811 2.485a14.4 14.4 0 015.895 9.402 14.416 14.416 0 01-2.484 10.812z" fill="#ee3a2d"/><path d="M543.858 126.153l71.133 70.04c.608-7.043 1.857-14.425-1.457-22.291-4.167-9.883-13.19-19.578-13.19-19.578s-38.04-41.11-39.944-43.13c-.069-.075-16.542 14.96-16.542 14.96z" fill="#d0cfce"/><path d="M565.488 215.222s3.341-49.628 3.424-47.996c.004-.002.017-.002.018-.005l-.023-13.175-30.817-29.942 1.057 19.486.042.021c.024-.33 4.918 33.456 4.968 34.057 1.154 13.906 9.172 27.257 21.331 37.554z" fill="#9b9b9a"/><path d="M587.955 93.845c10.01-9.46 11.707-29.834 2.25-39.842-9.461-10.014-29.465-12.842-39.478-3.384-3.625 3.425-7.665 9.967-9.114 17.332-.065.317-3.335 9.848-3.595 8.442l.323 7.758c7.063 6.865 26.693 26.827 28.188 28.416l-.498-9.342-.027-.032c-.787-.387 16.9-4.58 21.95-9.348zM558.8 80.9a13.913 13.913 0 01-2.37-10.45 13.89 13.89 0 01.869-3.016c2.45-5.898 8.738-9.547 15.29-8.422a13.908 13.908 0 019.07 5.707 13.91 13.91 0 012.37 10.45 13.92 13.92 0 01-5.708 9.072 13.921 13.921 0 01-10.45 2.37A13.914 13.914 0 01558.8 80.9z" fill="#d22f27"/></g><g fill="none" stroke-width="6.162"><path d="M559.624 107.932c15.958 16.835 33.796 36.238 38.761 42.128 8.965 10.639 22.212 28.362 17.02 48.918l-71.96-72.145m-30.171 1.468c8.6-.222 16.183-4.298 21.17-10.524l9.001 9.056 16.18-18.904c-13.085-13.795-26.142-27.141-28.876-28.985-4.656-3.142-11.715-6.926-18.93-6.738-15.491.402-27.724 13.285-27.322 28.776s13.286 27.722 28.777 27.32zm-9.277-15.699c-6.315-4.49-7.792-13.25-3.301-19.562 4.492-6.314 13.25-7.792 19.565-3.3 6.31 4.49 7.79 13.25 3.3 19.565-4.491 6.31-13.25 7.79-19.564 3.297z" stroke="#232323"/><path d="M567.357 100.433c7.542.518 15.272-1.985 21.2-7.589 11.263-10.643 11.766-28.4 1.122-39.664-10.643-11.262-28.402-11.762-39.665-1.118-5.246 4.956-7.576 12.619-8.662 18.13-.178.903-.296 2.873-.36 5.662m15.41-5.41c1.305-7.639 8.556-12.77 16.194-11.464 7.637 1.308 12.77 8.556 11.46 16.193-1.305 7.638-8.555 12.77-16.19 11.465-7.638-1.309-12.77-8.556-11.464-16.194z" stroke="#141414"/><path d="M565.862 167.38l.175 47.606c-18.183-10.905-21.297-32.812-22.449-46.676-.375-4.533-.902-11.421-1.381-24.48" stroke="#131313"/></g><g fill-rule="nonzero"><path d="M478.912 328.444c-2.52 0-4.32-.72-6.12-2.16s-2.52-3.24-2.52-5.4v-87.48c0-9.72 1.44-19.44 4.32-28.8 2.88-9 7.2-17.28 12.6-24.84 5.4-7.2 11.88-12.96 19.44-17.28 7.56-3.96 15.84-6.12 24.84-6.12h37.44v16.56h-36c-9 0-16.92 2.88-23.76 8.64-6.84 6.12-11.88 13.68-15.48 22.68-3.96 9.36-5.76 19.08-5.76 29.52v87.12c0 2.16-.72 3.96-2.52 5.4s-3.96 2.16-6.48 2.16zM400.892 330.604c-14.76 0-27.36-2.88-38.52-8.28s-20.16-13.32-26.64-23.4c-6.48-9.72-9.72-21.6-9.72-34.92v-42.84c0-11.88 2.88-22.68 9.36-32.4 6.12-9.72 14.04-17.64 24.12-23.76 9.72-5.76 20.88-8.64 32.76-8.64s22.68 2.88 32.4 8.28c9.72 5.76 18 13.32 24.12 23.04s9 21.24 9 33.84c0 9-1.44 15.12-4.32 19.08-3.24 3.96-6.84 6.48-11.52 7.2-4.68 1.08-9.36 1.44-14.76 1.44h-83.52v15.12c0 15.48 5.4 27.72 16.56 36.36 11.16 9.36 24.84 13.68 41.4 13.68 9.72 0 17.28-1.08 22.68-3.6s9.36-4.68 12.24-7.2 5.4-3.6 7.92-3.6c1.8 0 3.24.36 4.32 1.44s2.16 2.16 2.88 3.24c.72 1.44 1.08 2.88 1.08 3.96 0 2.52-2.16 5.4-6.12 9-4.32 3.6-10.44 6.48-18 9-7.56 2.88-16.92 3.96-27.72 3.96zm-57.24-96.12h76.68c8.28 0 13.68-.72 16.2-2.52s3.96-5.04 3.96-10.44c0-8.28-1.8-15.84-5.76-23.76-3.96-7.56-9.72-13.68-16.92-18.36-7.56-4.68-15.84-7.2-25.56-7.2-9 0-17.28 2.16-24.48 6.48-7.56 4.32-13.32 10.08-17.64 17.28s-6.48 15.12-6.48 23.76z"/><path d="M277.82 330.604c-11.88 0-23.04-3.24-33.12-9.36s-18-14.04-24.12-24.12-9-20.88-9-32.4v-100.8c0-1.8 1.08-3.6 2.88-5.4 1.8-1.44 3.6-2.16 6.12-2.16s4.32.72 6.12 2.16c1.8 1.8 2.52 3.6 2.52 5.4v100.8c0 8.28 2.16 16.2 6.48 23.76s10.08 13.68 17.64 18.36c7.2 4.68 15.48 7.2 24.48 7.2s17.28-2.52 24.48-7.2 12.96-10.8 17.28-18.36 6.48-15.48 6.48-23.76v-43.56h17.64v43.56c0 11.88-2.88 22.68-9 32.76s-14.04 18-23.76 24.12c-10.08 6.12-21.24 9-33.12 9zM75.6 328.444c-2.52 0-4.32-.72-6.12-2.52-1.8-1.44-2.52-3.24-2.52-5.04V60.244c0-2.52.72-4.32 2.52-5.76 1.8-1.08 3.6-1.8 6.12-1.8s4.68.72 6.48 1.8c1.8 1.44 2.52 3.24 2.52 5.76v181.08l94.68-83.16c1.8-1.08 3.24-1.8 4.68-1.8s2.88.36 4.32.72c1.08.72 2.16 1.8 3.24 2.88s1.44 2.88 1.44 4.68c0 1.08-.36 2.16-.72 3.24s-1.8 2.52-1.8 2.52l-57.24 50.4 64.44 95.04c1.08 1.08 1.44 2.52 1.44 3.96s-.36 2.88-1.08 4.32c-1.08 1.44-2.16 2.52-3.6 3.24-1.44 1.08-2.88 1.44-4.68 1.44-2.52 0-4.32-1.08-5.76-3.6l-63.72-93.24-35.64 31.32v57.6c0 1.8-.72 3.6-2.52 5.04-1.8 1.8-3.96 2.52-6.48 2.52z"/></g></svg>