<svg clip-rule="evenodd" fill-rule="evenodd" stroke-linejoin="round" stroke-miterlimit="2" viewBox="0 0 1000 375" xmlns="http://www.w3.org/2000/svg"><g fill-rule="nonzero"><path d="M854.559 328.444c-2.52 0-4.32-.72-6.12-2.16s-2.52-3.24-2.52-5.4v-87.48c0-9.72 1.44-19.44 4.32-28.8 2.88-9 7.2-17.28 12.6-24.84 5.4-7.2 11.88-12.96 19.44-17.28 7.56-3.96 15.84-6.12 24.84-6.12h18.36c2.16 0 3.96.72 5.4 2.16s2.16 3.24 2.16 5.76-.72 4.32-2.16 6.12-3.24 2.52-5.4 2.52h-16.92c-9 0-16.92 2.88-23.76 8.64-6.84 6.12-11.88 13.68-15.48 22.68-3.96 9.36-5.76 19.08-5.76 29.52v87.12c0 2.16-.72 3.96-2.52 5.4s-3.96 2.16-6.48 2.16zm-78.02 2.16c-14.76 0-27.36-2.88-38.52-8.28s-20.16-13.32-26.64-23.4c-6.48-9.72-9.72-21.6-9.72-34.92v-42.84c0-11.88 2.88-22.68 9.36-32.4 6.12-9.72 14.04-17.64 24.12-23.76 9.72-5.76 20.88-8.64 32.76-8.64s22.68 2.88 32.4 8.28c9.72 5.76 18 13.32 24.12 23.04s9 21.24 9 33.84c0 9-1.44 15.12-4.32 19.08-3.24 3.96-6.84 6.48-11.52 7.2-4.68 1.08-9.36 1.44-14.76 1.44h-83.52v15.12c0 15.48 5.4 27.72 16.56 36.36 11.16 9.36 24.84 13.68 41.4 13.68 9.72 0 17.28-1.08 22.68-3.6s9.36-4.68 12.24-7.2 5.4-3.6 7.92-3.6c1.8 0 3.24.36 4.32 1.44s2.16 2.16 2.88 3.24c.72 1.44 1.08 2.88 1.08 3.96 0 2.52-2.16 5.4-6.12 9-4.32 3.6-10.44 6.48-18 9-7.56 2.88-16.92 3.96-27.72 3.96zm-57.24-96.12h76.68c8.28 0 13.68-.72 16.2-2.52s3.96-5.04 3.96-10.44c0-8.28-1.8-15.84-5.76-23.76-3.96-7.56-9.72-13.68-16.92-18.36-7.56-4.68-15.84-7.2-25.56-7.2-9 0-17.28 2.16-24.48 6.48-7.56 4.32-13.32 10.08-17.64 17.28s-6.48 15.12-6.48 23.76zM573.6 328.444c-2.52 0-4.32-.72-5.76-2.16s-2.16-3.24-2.16-5.04c0-1.08.36-2.16.72-3.6.36-1.08 1.08-2.16 1.8-2.88l92.16-141.84h-91.44v-16.56h108.36c2.52 0 4.32.72 5.76 1.8 1.44 1.44 2.16 3.24 2.16 5.76 0 2.16-.72 4.32-2.16 6.12l-92.52 142.2h91.08c2.16 0 3.96.72 5.4 2.16 1.44 1.8 2.16 3.6 2.16 6.12 0 2.16-.72 3.96-2.16 5.4-1.44 1.8-3.24 2.52-5.4 2.52z"/><path d="M478.912 328.444c-2.52 0-4.32-.72-6.12-2.16s-2.52-3.24-2.52-5.4v-87.48c0-9.72 1.44-19.44 4.32-28.8 2.88-9 7.2-17.28 12.6-24.84 5.4-7.2 11.88-12.96 19.44-17.28 7.56-3.96 15.84-6.12 24.84-6.12h37.44v16.56h-36c-9 0-16.92 2.88-23.76 8.64-6.84 6.12-11.88 13.68-15.48 22.68-3.96 9.36-5.76 19.08-5.76 29.52v87.12c0 2.16-.72 3.96-2.52 5.4s-3.96 2.16-6.48 2.16zm-78.02 2.16c-14.76 0-27.36-2.88-38.52-8.28s-20.16-13.32-26.64-23.4c-6.48-9.72-9.72-21.6-9.72-34.92v-42.84c0-11.88 2.88-22.68 9.36-32.4 6.12-9.72 14.04-17.64 24.12-23.76 9.72-5.76 20.88-8.64 32.76-8.64s22.68 2.88 32.4 8.28c9.72 5.76 18 13.32 24.12 23.04s9 21.24 9 33.84c0 9-1.44 15.12-4.32 19.08-3.24 3.96-6.84 6.48-11.52 7.2-4.68 1.08-9.36 1.44-14.76 1.44h-83.52v15.12c0 15.48 5.4 27.72 16.56 36.36 11.16 9.36 24.84 13.68 41.4 13.68 9.72 0 17.28-1.08 22.68-3.6s9.36-4.68 12.24-7.2 5.4-3.6 7.92-3.6c1.8 0 3.24.36 4.32 1.44s2.16 2.16 2.88 3.24c.72 1.44 1.08 2.88 1.08 3.96 0 2.52-2.16 5.4-6.12 9-4.32 3.6-10.44 6.48-18 9-7.56 2.88-16.92 3.96-27.72 3.96zm-57.24-96.12h76.68c8.28 0 13.68-.72 16.2-2.52s3.96-5.04 3.96-10.44c0-8.28-1.8-15.84-5.76-23.76-3.96-7.56-9.72-13.68-16.92-18.36-7.56-4.68-15.84-7.2-25.56-7.2-9 0-17.28 2.16-24.48 6.48-7.56 4.32-13.32 10.08-17.64 17.28s-6.48 15.12-6.48 23.76z"/><path d="M277.82 330.604c-11.88 0-23.04-3.24-33.12-9.36s-18-14.04-24.12-24.12-9-20.88-9-32.4v-100.8c0-1.8 1.08-3.6 2.88-5.4 1.8-1.44 3.6-2.16 6.12-2.16s4.32.72 6.12 2.16c1.8 1.8 2.52 3.6 2.52 5.4v100.8c0 8.28 2.16 16.2 6.48 23.76s10.08 13.68 17.64 18.36c7.2 4.68 15.48 7.2 24.48 7.2s17.28-2.52 24.48-7.2 12.96-10.8 17.28-18.36 6.48-15.48 6.48-23.76v-43.56h17.64v43.56c0 11.88-2.88 22.68-9 32.76s-14.04 18-23.76 24.12c-10.08 6.12-21.24 9-33.12 9zM75.6 328.444c-2.52 0-4.32-.72-6.12-2.52-1.8-1.44-2.52-3.24-2.52-5.04V60.244c0-2.52.72-4.32 2.52-5.76 1.8-1.08 3.6-1.8 6.12-1.8s4.68.72 6.48 1.8c1.8 1.44 2.52 3.24 2.52 5.76v181.08l94.68-83.16c1.8-1.08 3.24-1.8 4.68-1.8s2.88.36 4.32.72c1.08.72 2.16 1.8 3.24 2.88s1.44 2.88 1.44 4.68c0 1.08-.36 2.16-.72 3.24s-1.8 2.52-1.8 2.52l-57.24 50.4 64.44 95.04c1.08 1.08 1.44 2.52 1.44 3.96s-.36 2.88-1.08 4.32c-1.08 1.44-2.16 2.52-3.6 3.24-1.44 1.08-2.88 1.44-4.68 1.44-2.52 0-4.32-1.08-5.76-3.6l-63.72-93.24-35.64 31.32v57.6c0 1.8-.72 3.6-2.52 5.04-1.8 1.8-3.96 2.52-6.48 2.52z"/></g></svg>