<svg clip-rule="evenodd" fill-rule="evenodd" stroke-linecap="round" stroke-linejoin="round" stroke-miterlimit="10" viewBox="0 0 400 400" xmlns="http://www.w3.org/2000/svg"><g fill-rule="nonzero"><path d="M146 94.225c-14.502-9.78-28.306-14.799-39.93-14.489-32.091.836-57.535 27.596-56.695 59.71.41 15.55 6.84 30.013 18.122 40.718 11.275 10.708 26.053 16.387 41.6 15.983 17.152-.448 31.652-3.896 42.412-17.336 1.279-1.6 6.75 2.536 8.19 3.983l14.497 11.82 33.464-38.523c-37.107-39.03-57.668-59.186-61.66-61.866zm-12.73 63.925c-4.64 6.531-11.543 10.859-19.44 12.193-7.895 1.335-15.84-.497-22.363-5.14-6.531-4.639-10.859-11.543-12.193-19.438-.943-5.635-.287-11.297 1.85-16.439a30.286 30.286 0 013.29-5.925c4.645-6.529 11.543-10.859 19.444-12.19 7.893-1.33 15.836.494 22.358 5.137 6.53 4.645 10.859 11.543 12.191 19.444a29.812 29.812 0 01-5.138 22.358z" fill="#ee3a2d"/><path d="M174.458 192.44l147.1 144.839c1.258-14.566 3.84-29.831-3.012-46.098-8.618-20.437-27.278-40.486-27.278-40.486s-78.665-85.015-82.601-89.19c-.142-.156-34.21 30.934-34.21 30.934z" fill="#d0cfce"/><path d="M219.19 376.63s6.908-102.63 7.078-99.254c.009-.004.037-.006.04-.011l-.049-27.246-63.728-61.918 2.186 40.297.086.043c.05-.683 10.17 69.185 10.274 70.429 2.387 28.755 18.968 56.364 44.112 77.66z" fill="#9b9b9a"/><path d="M265.649 125.628c20.7-19.562 24.21-61.695 4.653-82.392-19.565-20.709-60.933-26.557-81.639-6.997-7.496 7.082-15.85 20.61-18.847 35.841-.134.655-6.897 20.365-7.434 17.458l.667 16.043c14.606 14.197 55.2 55.477 58.293 58.762l-1.031-19.319-.056-.065c-1.627-.8 34.95-9.473 45.394-19.331zm-60.291-26.773c-4.463-6.312-6.208-13.984-4.902-21.61.37-2.186.981-4.27 1.798-6.236 5.068-12.196 18.07-19.743 31.62-17.417 7.624 1.297 14.284 5.493 18.755 11.801 4.469 6.315 6.205 13.99 4.901 21.611-1.295 7.617-5.493 14.283-11.804 18.76-6.312 4.463-13.99 6.205-21.61 4.901-7.627-1.306-14.29-5.496-18.758-11.81z" fill="#d22f27"/></g><g fill="none" stroke-width="12.743"><path d="M207.061 154.76c33.002 34.812 69.889 74.937 80.158 87.118 18.538 22 45.933 58.65 35.195 101.16L173.605 193.843" stroke="#232323"/><path d="M111.213 196.881c17.786-.46 33.466-8.889 43.777-21.763l18.615 18.726 33.459-39.09c-27.059-28.528-54.06-56.129-59.714-59.94-9.629-6.5-24.226-14.325-39.146-13.936-32.035.832-57.333 27.473-56.5 59.508.83 32.035 27.474 57.327 59.51 56.495zM92.03 164.416c-13.06-9.284-16.115-27.402-6.828-40.453 9.29-13.058 27.402-16.115 40.46-6.825 13.05 9.287 16.108 27.4 6.824 40.459-9.287 13.051-27.4 16.108-40.456 6.819z" stroke="#232323"/><path d="M223.055 139.25c15.596 1.073 31.58-4.104 43.84-15.692 23.291-22.01 24.331-58.732 2.32-82.023-22.01-23.29-58.735-24.325-82.025-2.314-10.849 10.25-15.668 26.096-17.913 37.493-.369 1.868-.613 5.94-.746 11.709m31.868-11.189c2.7-15.795 17.693-26.406 33.489-23.706 15.793 2.706 26.406 17.693 23.7 33.486-2.7 15.796-17.693 26.407-33.483 23.71-15.793-2.707-26.407-17.694-23.706-33.49z" stroke="#141414"/><path d="M219.961 277.694l.362 98.448c-37.6-22.552-44.04-67.854-46.422-96.524-.775-9.375-1.866-23.62-2.857-50.622" stroke="#131313"/></g></svg>